<svg width="103" height="103" viewBox="0 0 103 103" fill="none" xmlns="http://www.w3.org/2000/svg">
<path fill-rule="evenodd" clip-rule="evenodd" d="M51.4842 2.4196e-06C61.6706 -0.00311937 71.6292 3.01465 80.1004 8.67164C88.5716 14.3286 95.1749 22.3707 99.0752 31.7809C102.976 41.191 103.998 51.5464 102.012 61.5375C100.027 71.5285 95.1233 80.7064 87.9216 87.9104C80.7198 95.1144 71.5434 100.021 61.553 102.009C51.5625 103.998 41.2068 102.979 31.7955 99.0813C22.3841 95.1838 14.34 88.583 8.68042 80.1135C3.02083 71.644 4.78362e-07 61.6864 0 51.5C-6.41293e-07 37.8441 5.42371 24.7472 15.0784 15.0896C24.7331 5.43191 37.8283 0.0041875 51.4842 2.4196e-06" fill="#253F27"/>
<path d="M70.5339 52.6077C69.6987 48.1664 67.3439 44.1543 63.8735 41.2597C63.9682 42.1594 64.0944 42.9643 64.126 43.785C64.126 45.3633 64.126 46.9416 64.126 48.441C64.1122 48.5548 64.1374 48.6699 64.1976 48.7674C64.2579 48.8649 64.3495 48.9391 64.4574 48.9776C65.7359 49.6563 67.0301 50.3507 68.2769 51.0925C69.0345 51.5345 69.729 52.0711 70.5339 52.6708V52.6077ZM32.4179 52.6708C32.5037 52.636 32.5835 52.588 32.6547 52.5288C34.502 51.1352 36.4975 49.9495 38.6049 48.9934C38.6792 48.9601 38.7409 48.9038 38.7807 48.8327C38.8205 48.7616 38.8363 48.6796 38.8258 48.5988C38.8258 47.1152 38.8258 45.6316 38.8258 44.1638C38.8258 43.2326 38.9836 42.3172 39.0783 41.3229C35.6164 44.198 33.2618 48.1874 32.4179 52.6077V52.6708ZM58.0653 74.3567C55.8014 73.4423 53.6468 72.2776 51.6416 70.8844C51.4364 70.7582 51.3418 70.8845 51.1997 70.9634C49.3021 72.2709 47.2639 73.3614 45.1232 74.2147L44.776 74.3883C49.0764 75.9362 53.7874 75.9026 58.0653 74.2936V74.3567ZM69.1134 71.9893C72.0118 71.8923 74.8982 71.5704 77.7467 71.0265C77.0496 68.1148 75.8477 65.3478 74.1955 62.8509C73.1907 66.2067 71.4672 69.3035 69.145 71.9261L69.1134 71.9893ZM28.7247 62.8509C27.0881 65.3391 25.8872 68.0878 25.1735 70.9792C28.0273 71.5231 30.919 71.8449 33.8226 71.9419C31.4843 69.317 29.7448 66.215 28.7247 62.8509V62.8509ZM56.6448 33.021C55.2927 30.3869 53.5589 27.9671 51.4996 25.8397C49.3905 27.9335 47.6319 30.3529 46.2912 33.0052C49.7032 32.2699 53.2328 32.2699 56.6448 33.0052V33.021ZM43.6396 51.645C44.8074 56.866 47.5644 61.5969 51.5312 65.1868C55.4887 61.5958 58.2441 56.873 59.4227 51.6607C55.8557 50.0509 47.8695 50.0351 43.6396 51.6292V51.645ZM43.1346 47.2573C48.6083 45.7029 54.4066 45.7029 59.8804 47.2573C59.8804 47.1626 59.8804 47.1152 59.8804 47.0679C60.0095 44.1388 59.6413 41.209 58.7913 38.403C58.7648 38.328 58.721 38.2603 58.6634 38.2055C58.6058 38.1506 58.5361 38.1101 58.4599 38.0873C57.2172 37.6755 55.9526 37.333 54.672 37.0614C51.307 36.4672 47.8439 36.7944 44.6498 38.0084C44.5098 38.0499 44.384 38.1294 44.2864 38.238C44.1889 38.3467 44.1235 38.4803 44.0973 38.624C43.5738 40.4893 43.2459 42.4041 43.1188 44.3374C43.1346 45.3002 43.1346 46.2629 43.1346 47.2573ZM39.615 53.2548C39.5201 53.2843 39.4298 53.3268 39.3467 53.3811C37.0979 54.5452 35.008 55.9933 33.1282 57.6898C32.8232 57.9141 32.5946 58.2267 32.4732 58.5852C32.3518 58.9437 32.3435 59.3309 32.4495 59.6943C33.2979 64.2149 35.7326 68.2839 39.3151 71.1685C39.4559 71.272 39.6311 71.3173 39.8044 71.2948C42.6006 70.6516 45.2685 69.5418 47.6959 68.0119C47.7935 67.955 47.8836 67.8861 47.9642 67.8068C43.85 63.8467 40.9439 58.8007 39.5834 53.2548H39.615ZM55.0034 67.8068L55.0823 67.9015C57.5847 69.4976 60.3459 70.6459 63.2422 71.2948C63.3205 71.3047 63.4001 71.2987 63.476 71.277C63.552 71.2553 63.6228 71.2184 63.6841 71.1685C67.5249 68.1014 70.0304 63.6673 70.6759 58.7947C70.685 58.7115 70.6755 58.6273 70.6482 58.5482C70.6209 58.469 70.5765 58.3969 70.5181 58.3369C68.4973 56.3427 66.1816 54.6712 63.6525 53.3811L63.3368 53.239C61.9795 58.7872 59.0793 63.8378 54.9718 67.8068H55.0034ZM51.5154 20C53.9788 21.973 56.1566 24.2783 57.9864 26.8498C59.7045 29.298 61.1145 31.9485 62.1847 34.7413C62.2453 34.8909 62.3572 35.014 62.5004 35.0886C66.6208 37.2491 70.0134 40.5757 72.2542 44.6531C73.8804 47.5648 74.85 50.7969 75.0952 54.1229C75.0952 54.9752 75.0952 55.8432 75.1899 56.6955C75.2034 56.8813 75.2752 57.058 75.3951 57.2006C78.7131 61.0039 81.0248 65.5784 82.1186 70.5057C82.4185 71.863 82.5921 73.2361 82.8447 74.6408L81.2664 74.8618L75.4424 75.6983C71.9811 76.2999 68.4501 76.3903 64.9625 75.9666C64.7152 75.9454 64.4673 76.0005 64.2523 76.1244C59.8008 78.9593 54.5256 80.2156 49.2742 79.6914C45.5836 79.3534 42.0277 78.1357 38.9047 76.1402C38.6792 75.9842 38.4019 75.922 38.1314 75.9666C34.9577 76.3694 31.743 76.3216 28.5826 75.8245L20.6911 74.7039L20.3281 74.625C20.4544 73.7727 20.5649 72.9205 20.6911 72.084C21.6263 66.5628 24.0677 61.407 27.7461 57.1848C27.8564 57.0514 27.9177 56.8843 27.9198 56.7113C27.8297 52.2868 28.9716 47.9244 31.2181 44.1115C33.4646 40.2987 36.727 37.1856 40.6409 35.1201C40.7851 35.0395 40.8967 34.9112 40.9565 34.7571C42.7215 29.8579 45.5889 25.4299 49.3373 21.815C49.9844 21.1995 50.6946 20.6155 51.3733 20.0158L51.5154 20Z" fill="#E8B2AD"/>
</svg>
