<svg width="103" height="103" viewBox="0 0 103 103" fill="none" xmlns="http://www.w3.org/2000/svg">
<g clip-path="url(#clip0_178_109)">
<path fill-rule="evenodd" clip-rule="evenodd" d="M51.4921 2.41997e-06C61.6801 -0.00311985 71.6402 3.01511 80.1127 8.67297C88.5852 14.3308 95.1895 22.3742 99.0904 31.7857C102.991 41.1973 104.014 51.5543 102.028 61.5469C100.042 71.5395 95.1379 80.7188 87.9351 87.9239C80.7322 95.129 71.5544 100.036 61.5624 102.025C51.5704 104.014 41.2131 102.995 31.8003 99.0965C22.3876 95.1984 14.3422 88.5966 8.68174 80.1258C3.02128 71.655 4.78436e-07 61.6959 0 51.5079C-6.41392e-07 37.8499 5.42454 24.751 15.0807 15.0919C24.7369 5.43275 37.8341 0.00418814 51.4921 2.41997e-06" fill="#19264E"/>
<path d="M40.1737 81.4055C41.4366 80.8215 42.4311 80.2374 43.7886 81.0267C44.3798 81.408 45.0814 81.5808 45.782 81.5179C46.4827 81.455 47.1422 81.1599 47.656 80.6794C48.189 80.1839 48.5645 79.5426 48.7357 78.8353C48.9069 78.1279 48.8663 77.3859 48.6189 76.7015C48.373 75.5914 47.8066 74.5778 46.9901 73.7865C46.1735 72.9952 45.1427 72.461 44.0254 72.25C42.9965 71.9773 41.9307 71.8707 40.8683 71.9343C39.0687 72.0921 38.6741 71.1924 38.8004 69.677C48.098 68.0984 52.0286 73.4339 51.3498 81.5318C51.3498 81.737 51.2551 81.958 51.2235 82.179C50.7184 85.4308 50.6395 85.5571 47.4508 85.0836C44.6709 84.7422 42.0972 83.4414 40.1737 81.4055" fill="#E5ABA5"/>
<path d="M81.1846 63.0629C80.7655 62.4671 80.5187 61.7674 80.4714 61.0406C80.424 60.3138 80.5779 59.5879 80.9162 58.9429C81.1798 58.3578 81.267 57.7086 81.1672 57.0748C81.0675 56.4409 80.785 55.8499 80.3545 55.3741C79.9239 54.8984 79.364 54.5585 78.7432 54.3961C78.1224 54.2337 77.4678 54.2558 76.8594 54.4598C73.7023 55.1228 72.1238 57.3485 71.7607 61.4685C71.7449 61.7472 71.7449 62.0265 71.7607 62.3052C71.7607 64.3731 71.7607 64.3731 69.1245 64.4836C69.2485 62.2877 69.4962 60.1006 69.8664 57.9326C70.1981 56.3691 71.0227 54.9534 72.219 53.8935C73.4153 52.8336 74.9201 52.1855 76.5121 52.0446C78.9173 51.832 81.3366 51.832 83.7418 52.0446C84.5943 52.0446 84.9731 52.4551 84.9889 53.3864C85.029 55.1579 84.7146 56.9196 84.064 58.5678C83.4134 60.216 82.4397 61.7175 81.2004 62.9839" fill="#E5ABA5"/>
<path d="M64.2466 33.623C62.0815 33.5155 59.9252 33.273 57.7904 32.8968C53.9387 31.9813 52.3128 28.9505 51.8077 25.383C51.6792 23.278 51.7267 21.1659 51.9497 19.0688C51.9497 17.9796 52.5654 17.6797 53.5283 17.6797C55.2745 17.6527 57.0086 17.9738 58.6293 18.6242C60.25 19.2747 61.725 20.2415 62.968 21.4682C62.4283 21.9276 61.7561 22.2028 61.0492 22.2539C60.3423 22.305 59.6376 22.1293 59.0374 21.7523C58.4654 21.3895 57.7874 21.2311 57.1138 21.3027C56.4402 21.3744 55.8107 21.6719 55.3278 22.147C54.843 22.6039 54.4991 23.1901 54.3368 23.8363C54.1746 24.4825 54.2008 25.1616 54.4123 25.7934C54.6575 27.0231 55.278 28.1464 56.1883 29.0087C57.0987 29.871 58.254 30.4297 59.4952 30.6079C60.3505 30.8279 61.233 30.9236 62.1156 30.8921C63.8993 30.7342 64.4834 31.5709 64.3255 33.623" fill="#E5ABA5"/>
<path d="M31.1288 39.1006L33.2757 38.6112C34.6016 46.5039 31.2551 50.8923 24.4674 51.35C22.6502 51.3864 20.8333 51.2649 19.0372 50.987C18.6425 50.987 18.0111 50.3871 17.9953 50.0556C17.8717 48.2387 18.131 46.416 18.7564 44.7056C19.3818 42.9952 20.3595 41.4352 21.626 40.1266C22.0481 40.709 22.2972 41.3987 22.3447 42.1164C22.3922 42.8341 22.2361 43.5506 21.8944 44.1835C21.6919 44.7257 21.6138 45.3065 21.6657 45.8829C21.7176 46.4594 21.8982 47.0168 22.1943 47.5142C22.634 47.9369 23.1579 48.2623 23.7318 48.469C24.3057 48.6757 24.9167 48.7591 25.525 48.7139C28.9662 48.3824 30.9236 45.8094 31.1288 41.8472C31.1288 40.979 31.1288 40.1108 31.1288 39.1006" fill="#E5ABA5"/>
<path d="M28.7296 53.4022C28.2142 53.9922 27.5385 54.4197 26.7846 54.6327C26.0307 54.8457 25.2312 54.835 24.4833 54.6018C23.11 54.1441 22.1155 55.1701 21.5156 56.4172C21.1608 57.1454 21.0597 57.9715 21.2285 58.7638C21.3972 59.5562 21.8262 60.2693 22.447 60.7898C24.1892 62.0309 26.0023 63.1694 27.8772 64.1994C28.4139 64.4458 28.9746 64.6362 29.5504 64.7677C29.5504 65.5885 29.4084 66.3462 29.3294 67.1671C26.0318 66.7664 23.014 65.1149 20.899 62.5533C18.784 59.9918 17.7333 56.716 17.9639 53.4022C18.0023 53.1107 18.1096 52.8326 18.2771 52.591C18.4446 52.3494 18.6673 52.1512 18.9268 52.013C22.26 51.5392 25.6593 52.0209 28.7296 53.4022" fill="#E5ABA5"/>
<path d="M38.2957 29.3767L35.9595 29.282C35.9595 24.4359 40.5057 19.1636 45.5097 18.0744C46.4254 17.8869 47.3542 17.7708 48.2879 17.7271C50.7188 17.6166 50.8609 17.7271 50.9241 20.0791C51.1585 22.9927 50.7155 25.921 49.6297 28.6348C48.6668 27.3246 47.6249 26.3617 48.2879 24.499C48.7772 23.1099 47.7196 22.0049 46.441 21.342C45.8148 20.9721 45.08 20.8297 44.361 20.939C43.6419 21.0483 42.9827 21.4025 42.4946 21.9418C40.3972 23.9492 38.9369 26.5294 38.2957 29.361" fill="#E5ABA5"/>
<path d="M73.7652 35.7856C80.8529 37.0801 85.0518 42.0998 85.0518 49.1086C85.0518 50.4188 84.6256 51.0028 83.2523 51.0028C80.1802 51.2321 77.0957 50.7738 74.223 49.6611C75.5174 48.6824 76.4488 47.6089 78.2009 48.2719C78.8116 48.491 79.4814 48.4787 80.0835 48.2372C80.6857 47.9958 81.1784 47.542 81.4685 46.9617C81.8987 46.4393 82.1246 45.7784 82.1042 45.102C82.0839 44.4255 81.8188 43.7794 81.358 43.2837C79.6184 41.5683 77.621 40.1355 75.4385 39.0374C73.639 38.2324 73.197 37.4589 73.7652 35.7856" fill="#E5ABA5"/>
<path d="M53.2444 74.3021C54.1915 75.7701 55.2492 76.7172 54.5546 78.501C54.0337 79.827 55.0439 80.9004 56.2279 81.6581C56.821 82.0933 57.5529 82.2967 58.2856 82.2298C59.0183 82.1629 59.7012 81.8304 60.2058 81.295C61.7416 79.5665 63.0033 77.6127 63.9469 75.5017C64.6573 73.7654 65.5255 73.4812 66.9777 73.9232C66.3621 80.6794 59.5744 86.2043 53.0866 85.1624C52.8552 85.0848 52.645 84.9546 52.4725 84.7821C52.2999 84.6095 52.1697 84.3993 52.0921 84.1679C51.6832 80.8241 52.0782 77.4309 53.2444 74.2705" fill="#E5ABA5"/>
<path d="M48.0353 40.2687C49.4838 42.483 50.4071 44.9991 50.7346 47.6247C50.9398 50.4976 50.6083 51.0344 47.767 50.8923C45.7308 50.686 43.7074 50.3698 41.7054 49.9452V49.1717C42.5828 48.8413 43.5019 48.6341 44.4362 48.556C47.2303 48.6665 48.4773 46.9775 47.2776 44.294C46.6292 42.8233 45.6607 41.5159 44.4427 40.4672C43.2247 39.4186 41.788 38.655 40.2373 38.2324C38.6588 37.7746 38.2799 36.9064 38.6588 35.2963C41.8677 35.796 44.8443 37.2733 47.1829 39.5268C47.4828 39.8109 47.8301 40.0635 48.1616 40.3318L48.0353 40.2687Z" fill="#E5ABA5"/>
<path d="M54.444 62.2104C53.08 59.8791 52.3002 57.2524 52.1709 54.5545C52.1709 52.5024 52.313 52.1235 54.3335 52.1867C56.5908 52.1867 58.8481 52.6602 61.1055 52.9128C61.1055 53.2127 61.1054 53.5126 61.1844 53.7968C60.3209 54.1707 59.4053 54.4103 58.4693 54.5071C55.8173 54.3493 54.6334 55.6279 55.4385 58.2009C56.1531 60.4358 57.6719 62.3258 59.7005 63.5048C60.6226 64.1098 61.6276 64.5777 62.684 64.894C64.2626 65.3044 64.6572 66.2357 64.2626 67.8458C60.4391 67.0982 56.9735 65.0988 54.4124 62.1631L54.444 62.2104Z" fill="#E5ABA5"/>
<path d="M67.7037 38.4533C67.403 41.8609 65.809 45.024 63.2492 47.2932C60.6893 49.5625 57.3579 50.7655 53.9388 50.6555C52.9128 50.6555 52.4708 50.324 52.3603 49.2821C52.0457 46.7266 52.4161 44.1335 53.4337 41.7683H53.9388C54.2509 42.5841 54.4475 43.4395 54.5229 44.3097C54.3808 47.088 56.1014 48.3982 58.7376 47.2616C60.2197 46.6324 61.538 45.6722 62.5914 44.4546C63.6449 43.2369 64.4055 41.7942 64.815 40.2371C64.8583 39.9148 64.9737 39.6064 65.1527 39.3348C65.3316 39.0633 65.5695 38.8356 65.8487 38.6687C66.1278 38.5018 66.441 38.4001 66.7649 38.371C67.0888 38.3419 67.4151 38.3862 67.7195 38.5007" fill="#E5ABA5"/>
<path d="M35.4697 64.4519C35.7998 61.0845 37.3741 57.9613 39.8847 55.693C42.3953 53.4247 45.6617 52.1744 49.0452 52.1866C50.2922 52.1866 50.7816 52.6444 50.8605 53.9072C51.1108 56.5843 50.5963 59.2774 49.3767 61.6737C49.0294 60.395 48.8084 59.5111 48.5716 58.6429C48.3349 57.7747 48.3822 56.2435 47.7666 55.8804C46.783 55.3963 45.6475 55.3225 44.6095 55.6752C43.0756 56.2797 41.7051 57.236 40.6084 58.4671C39.5116 59.6982 38.7194 61.1696 38.2953 62.7629C37.8375 64.3414 37.143 64.9097 35.4697 64.4519" fill="#E5ABA5"/>
<path d="M27.7037 47.3089C25.1747 45.3474 23.334 42.6334 22.4471 39.5583C21.279 34.3491 24.0257 30.6553 29.6453 29.8029C29.7873 31.2551 29.9136 32.3917 28.0667 32.9599C27.4008 33.0808 26.772 33.3546 26.2299 33.7598C25.6877 34.165 25.2471 34.6905 24.9425 35.2949C24.638 35.8993 24.478 36.5662 24.475 37.243C24.472 37.9198 24.6262 38.5881 24.9254 39.1952C25.7271 41.0484 26.8314 42.7555 28.193 44.2465C29.5663 45.8251 29.6768 46.0303 27.7037 47.4036" fill="#E5ABA5"/>
<path d="M72.9605 29.5819C71.382 29.8187 70.4664 29.5819 69.9455 27.8771C68.8247 24.3096 65.2099 23.3624 61.6897 25.6197C60.176 26.7149 58.7217 27.89 57.3329 29.1399L55.7544 27.8455C58.0117 23.8518 63.3472 21.3103 67.3251 22.2101C68.9947 22.5639 70.4843 23.4993 71.5281 24.8496C72.5719 26.1998 73.1019 27.877 73.0237 29.5819" fill="#E5ABA5"/>
<path d="M45.7622 73.6548L47.467 75.2334C44.7519 78.1695 42.0526 80.7899 37.8537 80.853C33.118 80.9319 30.2924 78.1695 29.9609 73.3549C31.3816 73.2444 32.4393 73.3549 33.118 75.0913C34.3019 78.5799 37.6484 79.5586 41.0107 77.4433C42.669 76.2892 44.2508 75.029 45.7464 73.6706" fill="#E5ABA5"/>
<path d="M77.5067 40.6317L79.6061 42.0524C77.4751 49.0454 70.2927 52.013 62.0054 49.0454C62.4283 48.4199 63.0224 47.9295 63.7166 47.6328C64.4108 47.3361 65.1758 47.2456 65.9202 47.3721C71.2398 47.9562 75.2967 45.9672 77.5067 40.6317Z" fill="#E5ABA5"/>
<path d="M25.5091 62.384L23.3149 60.8055C26.0143 53.6389 33.0703 50.8449 41.042 53.8283C40.1264 54.7281 39.4635 55.7384 37.8849 55.5489C32.2811 54.886 27.8612 56.5434 25.4933 62.3367" fill="#E5ABA5"/>
<path d="M48.0984 40.3317C47.7545 39.505 47.5312 38.6332 47.4354 37.7429C47.6722 30.9078 46.5987 28.8084 40.6792 25.1935L42.1157 23.1256C49.5348 25.6829 51.7921 33.2599 49.077 40.9L48.0352 40.2686" fill="#E5ABA5"/>
<path d="M54.3965 62.1631C55.6909 63.7416 55.4541 65.5885 55.4225 67.4196C55.2655 69.4828 55.7559 71.5436 56.8255 73.3148C57.895 75.0861 59.4904 76.4796 61.3894 77.3013C61.6262 77.4276 61.863 77.5855 62.2576 77.8222L60.8685 79.9375C58.1642 79.0067 55.8821 77.1393 54.4346 74.6727C52.9871 72.2061 52.4696 69.3031 52.9758 66.4883C53.1184 65.3413 53.3239 64.2031 53.5914 63.0786C53.6861 62.7314 54.2544 62.4946 54.5859 62.2104" fill="#E5ABA5"/>
<path d="M75.1069 55.8489C78.1061 58.485 80.5844 61.4211 80.616 65.7148C80.6476 70.0084 78.2008 72.5499 73.1969 73.3391C73.0232 71.7606 72.9601 70.6872 74.949 70.1031C75.5799 69.9685 76.172 69.6924 76.6806 69.2957C77.1893 68.8989 77.6013 68.3919 77.8855 67.8128C78.1697 67.2337 78.3188 66.5977 78.3214 65.9526C78.3241 65.3076 78.1803 64.6703 77.9009 64.0889C77.0631 62.1963 75.9456 60.4403 74.586 58.8797C73.3389 57.3011 73.2284 57.3011 75.1069 55.8489" fill="#E5ABA5"/>
<path d="M80.3321 38.4691C79.447 37.5406 78.6243 36.5545 77.8696 35.5172C77.2565 34.6594 76.4384 33.9687 75.4899 33.5082C74.5414 33.0478 73.4926 32.8321 72.4394 32.8811C71.6699 32.8416 70.8984 32.8734 70.1347 32.9758C67.7827 33.1968 67.7827 33.2126 67.6406 30.5922C70.8811 29.8961 74.2556 30.1819 77.3329 31.413C78.6047 31.9899 79.6495 32.9721 80.3035 34.2061C80.9576 35.44 81.1842 36.8559 80.9477 38.2323L80.4426 38.548" fill="#E5ABA5"/>
<path d="M69.9611 68.0827L72.2185 67.6249C72.5973 71.0503 72.8814 74.3179 71.4765 77.4592C70.9535 78.7622 69.9877 79.839 68.749 80.5002C67.5104 81.1614 66.0783 81.3646 64.7046 81.0741C64.8813 80.4517 65.1879 79.8739 65.6042 79.3787C66.0205 78.8835 66.537 78.4822 67.1198 78.2011C69.235 77.3014 69.8348 75.265 69.9453 73.1498C70.0243 71.5712 69.9453 69.9927 69.9453 68.0827" fill="#E5ABA5"/>
<path d="M38.185 22.1154C38.0011 22.7389 37.6883 23.3169 37.2668 23.8118C36.8453 24.3067 36.3246 24.7076 35.7383 24.9884C33.5441 25.8881 33.039 28.1454 32.9127 30.2291C32.818 31.8077 32.9127 33.3862 32.9127 35.1384L30.6711 35.533C30.2765 31.8708 29.945 28.3822 31.713 25.1146C32.319 23.9774 33.2831 23.0717 34.4561 22.538C35.629 22.0044 36.9453 21.8724 38.2008 22.1628" fill="#E5ABA5"/>
<path d="M22.7467 64.6257C23.5633 65.4598 24.3128 66.3571 24.9883 67.3092C25.5545 68.1982 26.3433 68.9237 27.2764 69.4139C28.2096 69.904 29.2546 70.1416 30.3079 70.1032C31.8865 70.1979 33.3861 70.1032 35.1541 70.1032C35.2488 70.6241 35.4066 71.4134 35.5961 72.3289C32.3266 73.0667 28.9106 72.8027 25.7933 71.5712C24.531 71.0499 23.4878 70.1082 22.8405 68.9056C22.1932 67.7031 21.9816 66.3137 22.2416 64.9729L22.7467 64.6099" fill="#E5ABA5"/>
<path d="M31.7129 49.1716C31.733 49.0512 31.7702 48.9342 31.8234 48.8243C32.1707 48.335 32.5495 47.8456 33.0073 47.2458C38.2954 48.9822 42.1786 46.5196 45.462 42.6049C47.1195 44.1834 47.1511 44.4833 45.6514 45.904C41.9419 49.3768 37.7587 51.3658 32.5811 49.6136C32.2812 49.4939 31.991 49.3514 31.7129 49.1874" fill="#E5ABA5"/>
<path d="M71.2714 54.0178L69.8981 55.9279C64.5153 54.0494 60.711 56.6698 57.3961 60.5372C55.7228 58.6903 55.7228 58.564 57.3961 57.0013C61.0583 53.639 65.1309 51.7447 70.198 53.4969C70.5642 53.6415 70.9179 53.8157 71.2557 54.0178" fill="#E5ABA5"/>
<path d="M53.7966 31.4603C55.3751 32.0602 55.8803 32.8179 55.4698 34.5069C54.649 37.9639 56.0539 40.8211 58.3743 43.4099C59.0058 44.1045 59.7161 44.7201 60.3791 45.3515C59.0216 47.0406 58.5164 47.0563 57.222 45.6199C54.0649 42.3365 52.218 38.6269 53.1336 33.9544C53.3298 33.1104 53.5722 32.2778 53.8597 31.4603" fill="#E5ABA5"/>
<path d="M49.2033 71.2713C48.8866 71.2169 48.5865 71.0911 48.3256 70.9035C48.0648 70.7158 47.8502 70.4712 47.6981 70.1882C47.5459 69.9052 47.4602 69.5912 47.4475 69.2701C47.4348 68.9491 47.4954 68.6293 47.6247 68.3352C48.4456 64.5467 46.7408 61.4527 44.1046 58.8639C43.6468 58.4062 43.1417 57.9799 42.6523 57.538C44.2309 55.8647 44.5782 55.8489 46.0304 57.4275C49.5664 61.2949 51.3975 65.6043 49.4401 70.8767C49.3761 71.0265 49.2968 71.1694 49.2033 71.3029" fill="#E5ABA5"/>
<path d="M57.222 41.0895C55.9434 39.1794 55.975 39.1005 58.0428 37.9324C61.7406 35.8725 65.9603 34.9397 70.1819 35.2489C70.1819 36.0539 70.0871 36.8274 70.0398 37.4746C67.8373 37.7287 65.6505 38.1029 63.4888 38.5954C61.3425 39.2933 59.2348 40.1048 57.1746 41.0263" fill="#E5ABA5"/>
<path d="M35.4698 32.7233C35.8171 32.7233 36.1959 32.7233 36.559 32.7233C36.9221 32.7233 37.3009 32.8338 37.806 32.9127C37.6708 37.384 38.9045 41.7901 41.342 45.541C39.5109 47.1196 39.1794 47.0249 38.1849 45.178C36.0792 41.3878 35.135 37.0619 35.4698 32.739" fill="#E5ABA5"/>
<path d="M32.8179 67.7195L32.9757 65.4306C35.1793 65.2152 37.3673 64.862 39.5267 64.373C41.6831 63.6419 43.7919 62.7773 45.8409 61.7842C46.0934 62.2735 46.4723 62.9523 46.8985 63.7416C42.7597 66.545 37.8277 67.9399 32.8337 67.7195" fill="#E5ABA5"/>
<path d="M61.5 57.4747C63.5521 56.1172 63.6942 56.1488 64.6571 57.9483C66.5342 61.4063 67.5774 65.255 67.7037 69.1875C67.7351 69.4603 67.7351 69.7357 67.7037 70.0084C67.7037 70.1031 67.609 70.1978 67.4669 70.4346L65.1622 70.2294C65.319 65.7258 64.0844 61.2832 61.6263 57.5063" fill="#E5ABA5"/>
<path d="M33.5913 32.0444C33.5913 31.4603 33.5913 31.0657 33.5913 30.6868C33.6545 30.3848 33.7443 30.089 33.8596 29.8029C36.1327 29.8029 38.3269 29.8029 40.5211 29.8029C41.3485 29.7707 42.1695 29.6436 42.9678 29.424C45.2409 28.8715 45.2252 28.8557 46.1249 31.2551C42.0681 33.1967 37.8534 32.2812 33.4966 32.0602" fill="#E5ABA5"/>
<path d="M69.4088 71.0977C69.2983 72.029 69.2193 72.6762 69.172 73.1971C67.1199 73.1971 65.2414 73.1024 63.3945 73.1971C61.5476 73.2919 59.827 73.6549 57.7907 73.9233C57.4907 73.4181 57.0645 72.692 56.5278 71.8238C60.7899 69.8822 65.0046 70.7978 69.4088 71.0819" fill="#E5ABA5"/>
<path d="M31.3975 56.5592C33.3549 60.9791 32.5024 65.1781 32.2341 69.3454C30.0083 69.7243 29.8189 69.5664 30.0083 67.5143C30.3783 64.6194 30.1744 61.68 29.4085 58.8639C28.8718 57.159 30.7187 57.5537 31.3975 56.5592" fill="#E5ABA5"/>
<path d="M70.8607 33.402L72.8338 33.623C73.0391 37.4904 73.2443 41.1842 73.4495 44.8938L73.923 44.9885L71.6815 46.3934C69.7083 42.1629 70.6397 37.9008 70.8607 33.402Z" fill="#E5ABA5"/>
<path d="M62.8735 25.6671L65.2255 24.8304C66.1411 28.2085 66.9777 31.3814 67.9091 34.8226L65.4466 35.0594C64.5784 31.9023 63.7417 28.8557 62.8735 25.5881" fill="#E5ABA5"/>
<path d="M68.1144 68.1142C67.9091 66.9776 67.7986 66.2988 67.6724 65.6516L76.97 63.0786C77.1436 63.5837 77.3962 64.2783 77.8066 65.3991L68.1144 68.1142" fill="#E5ABA5"/>
<path d="M25.8563 40.1108C25.6669 39.5583 25.4459 38.8953 25.0513 37.7587L34.7751 35.0752C34.9487 36.0697 35.0592 36.7958 35.1855 37.5219L25.8563 40.1108" fill="#E5ABA5"/>
<path d="M37.5851 67.8301C38.4375 70.9872 39.2426 73.9548 40.0792 77.0172C38.5006 78.2485 37.9797 78.2011 37.3641 76.2279C36.559 73.6707 35.9276 71.0661 35.1699 68.3352L37.5851 67.8932" fill="#E5ABA5"/>
</g>
<defs>
<clipPath id="clip0_178_109">
<rect width="103" height="103" fill="white"/>
</clipPath>
</defs>
</svg>
