<svg width="103" height="103" viewBox="0 0 103 103" fill="none" xmlns="http://www.w3.org/2000/svg">
<path fill-rule="evenodd" clip-rule="evenodd" d="M51.614 0.260012C61.7747 0.256898 71.7081 3.26705 80.1579 8.90976C88.6077 14.5525 95.1944 22.5743 99.0849 31.9606C102.975 41.347 103.995 51.6763 102.015 61.6421C100.034 71.608 95.143 80.7627 87.9594 87.9485C80.7758 95.1343 71.6226 100.028 61.6573 102.012C51.6921 103.995 41.3625 102.979 31.9749 99.0912C22.5874 95.2036 14.5636 88.6194 8.91827 80.1713C3.27296 71.7232 0.259766 61.7907 0.259766 51.63C0.259765 38.0086 5.66978 24.9448 15.3001 15.3115C24.9305 5.67821 37.9926 0.264187 51.614 0.260012" fill="#E5ABA5"/>
<path d="M28.7868 45.8208L24.3 50.3705C22.141 48.5601 20.77 45.9816 20.4762 43.1793C20.1825 40.3771 20.9891 37.5703 22.7257 35.3515C23.5935 34.2122 24.6805 33.2579 25.9226 32.545C27.1648 31.8321 28.537 31.3749 29.9585 31.2003C31.38 31.0257 32.8221 31.1373 34.1999 31.5285C35.5776 31.9197 36.8632 32.5826 37.9809 33.4781C40.7359 35.7766 43.1761 38.4687 45.7265 40.9876C47.3008 42.5619 48.8751 44.1362 50.2763 45.5689L45.4589 50.3705C41.8537 46.7339 38.1225 42.924 34.4386 39.1614C33.8423 38.4886 33.0387 38.0336 32.155 37.8682C31.2712 37.7029 30.3576 37.8366 29.5583 38.2483C28.7534 38.5992 28.0871 39.2062 27.6629 39.9749C27.2387 40.7436 27.0804 41.631 27.2125 42.4989C27.6182 43.6388 28.146 44.7315 28.7868 45.7578" fill="#253F27"/>
<path d="M39.6806 47.0487C35.981 50.7484 32.1554 54.5267 28.3613 58.3366C27.7566 58.9005 27.3457 59.6412 27.1874 60.4527C27.029 61.2642 27.1313 62.105 27.4797 62.8549C27.7408 63.6139 28.2447 64.2657 28.9134 64.7097C29.5821 65.1536 30.3785 65.3649 31.1793 65.3108C32.5528 64.9689 33.8915 64.4998 35.1781 63.9097L39.6334 68.3965C38.3657 69.8735 36.7209 70.9787 34.8743 71.5942C33.0278 72.2097 31.0488 72.3124 29.1484 71.8915C27.2625 71.506 25.5123 70.6278 24.0761 69.3461C22.6399 68.0644 21.5689 66.425 20.9722 64.5949C20.3755 62.7648 20.2743 60.8092 20.6791 58.9273C21.0838 57.0454 21.9799 55.3043 23.2762 53.8813C27.0703 49.8825 31.0534 46.0097 34.8789 42.2156L39.6806 47.0487" fill="#253F27"/>
<path d="M79.0388 53.0155C81.281 54.8255 82.7123 57.452 83.0179 60.3174C83.3234 63.1827 82.4783 66.052 80.6682 68.2942C78.8582 70.5364 76.2317 71.9677 73.3663 72.2732C70.501 72.5788 67.6317 71.7336 65.3895 69.9236C63.922 68.6845 62.524 67.3653 61.2018 65.9721L52.9209 57.7069C54.4952 56.1326 56.0695 54.5583 57.8957 52.8265L67.7352 62.9651C68.1603 63.4059 68.6011 63.8625 69.0577 64.2718C69.8483 64.9496 70.8645 65.3059 71.9053 65.2702C72.9461 65.2344 73.9355 64.8093 74.6778 64.0789C75.4201 63.3485 75.8611 62.366 75.9136 61.326C75.9661 60.2859 75.6263 59.264 74.9613 58.4626L74.3001 57.6912L79.0231 52.9682" fill="#253F27"/>
<path d="M68.0182 39.3503L63.6416 34.9107C64.6174 33.8574 65.7912 33.0065 67.0958 32.4068C68.4005 31.807 69.8104 31.4701 71.2453 31.4153C72.6801 31.3605 74.1117 31.5888 75.4583 32.0873C76.8049 32.5857 78.0402 33.3445 79.0935 34.3203C80.1469 35.2962 80.9977 36.4699 81.5975 37.7745C82.1972 39.0792 82.5341 40.4892 82.5889 41.924C82.6437 43.3589 82.4154 44.7905 81.917 46.1371C81.4185 47.4837 80.6597 48.7189 79.6839 49.7723C75.9055 53.5979 72.0957 57.392 68.3646 61.1073L63.6416 56.2742C67.3412 52.5903 71.1196 48.8434 74.8822 45.0651C75.523 44.5026 75.9654 43.7486 76.1441 42.9149C76.3227 42.0813 76.228 41.2122 75.8741 40.4366C75.6291 39.667 75.1329 39.002 74.4649 38.5481C73.7969 38.0942 72.9958 37.8777 72.1901 37.9334C70.7721 38.2461 69.4012 38.7437 68.1127 39.4133" fill="#253F27"/>
<path d="M51.677 35.0052L47.0643 39.7281C45.4899 38.1538 43.9156 36.5795 42.3413 35.0052L51.5038 25.8269L71.5292 45.8365L67.0896 50.3705L51.74 35.0367" fill="#253F27"/>
<path d="M51.7714 77.433L31.7461 57.4077L36.2644 52.9209L51.5195 68.176L56.0536 63.4531L60.9025 68.3335L51.7714 77.4488" fill="#253F27"/>
<path d="M46.8121 60.9185L42.2466 56.4632L56.4154 42.4203L60.792 46.8441L46.8121 60.9185Z" fill="#253F27"/>
</svg>
